<svg xmlns="http://www.w3.org/2000/svg" viewBox="0 0 100 100" style="enable-background:new 0 0 100 100" xml:space="preserve" fill="#fff"><path d="M50 3.8C22.4 3.8 0 21.5 0 43.3c0 14 9.3 26.3 23.2 33.3l-4.7 17.6c-.2.5 0 1.1.4 1.5.3.3.6.4 1 .4.3 0 .6-.1.9-.3L41 82.2c2.9.4 5.9.7 9 .7 27.6 0 50-17.7 50-39.5 0-21.9-22.4-39.6-50-39.6zm-26.7 52c0 .9-.3 1.6-.8 2.2-.5.5-1.2.8-2.1.8-.7 0-1.3-.2-1.8-.6-.5-.4-.8-.9-1-1.6-.1-.2-.1-.5-.1-.8V37.1h-5.4c-.8 0-1.4-.2-1.9-.5s-.9-.8-1-1.5c0-.2-.1-.4-.1-.6 0-.8.3-1.4.9-1.9.6-.4 1.3-.7 2.1-.7h16.6c.8 0 1.4.2 1.9.5s.9.8 1 1.5c0 .2.1.4 0 .5 0 .8-.3 1.4-.8 1.9-.6.4-1.3.7-2.1.7h-5.4v18.8zM47.1 58c-.5.5-1.2.8-1.9.8-1.3 0-2.2-.6-2.6-1.6l-1.5-4.4h-9.3l-1.5 4.4c-.4 1.1-1.2 1.6-2.6 1.6-.7 0-1.2-.2-1.7-.5s-.8-.8-.9-1.5c0-.2-.1-.4-.1-.6 0-.3 0-.6.2-1.1.1-.4.2-.8.4-1.2L33 33.4c.2-.7.6-1.1 1.1-1.4.5-.3 1-.4 1.8-.4h1.4c.8 0 1.4.2 1.9.5s.9.9 1.2 1.7l6.9 20.1c.2.6.4 1.2.5 1.6.1.3.1.5.1.7 0 .7-.3 1.3-.8 1.8zm19.2-.3c-.6.4-1.3.7-2.1.7h-12c-.9 0-1.6-.2-2.2-.5-.6-.4-.9-1-1.1-1.8-.1-.3-.1-.7-.1-1.2V34.6c0-.9.3-1.6.8-2.2.5-.6 1.2-.8 2.1-.8.7 0 1.3.2 1.8.6.5.4.8 1 1 1.6.1.2.1.5.1.8v18.8h9.6c.8 0 1.4.2 1.9.5s.9.8 1 1.5c0 .2.1.4.1.5-.1.7-.3 1.3-.9 1.8zm21.6.4c-.6.4-1.3.7-2.1.7-.6 0-1.1-.1-1.4-.3-.4-.2-.8-.6-1.1-1.3l-6.6-10.7-3.2 3.3v6c0 .9-.3 1.6-.8 2.2-.5.5-1.2.8-2.1.8-.7 0-1.3-.2-1.8-.6-.5-.4-.8-.9-1-1.6 0-.2-.1-.5 0-.8V34.5c0-.9.3-1.6.8-2.2.5-.6 1.2-.8 2.1-.8.7 0 1.3.2 1.8.6.5.4.8 1 1 1.6 0 .2.1.5.1.8v8.7l9-10.4c.4-.4.8-.8 1.1-1 .3-.2.7-.3 1.2-.3.6 0 1.2.2 1.7.5s.8.8.9 1.4v.4c0 .4-.1.8-.3 1.1-.2.3-.4.6-.7 1l-5.9 6.5 7 11.1.2.3c.5.8.8 1.3.8 1.7v.4c.2 1.1-.1 1.8-.7 2.2z"/><path d="m36.5 38-3.4 10.6h6.8L36.6 38z"/></svg>