<svg version="1.0" xmlns="http://www.w3.org/2000/svg" width="682.667" height="682.667" viewBox="0 0 512 512"><path d="M238.8 1.6c-37.3 6.8-67.7 35-77.4 71.9-2.4 8.9-2.7 12.3-3.2 31.7l-.4 21.8H124c-21.5 0-34.9.4-36.7 1.1-3.4 1.2-8 5.5-9.8 8.9-.7 1.4-1.6 4.5-1.9 7-.4 2.5-7.6 82.3-16.2 177.5-17 189.9-16.4 178.1-10 184.6 6.2 6.3-8.8 5.9 206.6 5.9 163.3 0 197.6-.2 200.3-1.4 4.5-1.9 9.6-7.4 10.7-11.7 1.4-5.2-30.1-357.3-32.3-361.6-2-3.7-6.5-7.9-10-9.2-1.8-.7-15.2-1.1-36.7-1.1h-33.8l-.4-21.8c-.5-19.4-.8-22.8-3.2-31.7-13.1-49.4-62-80.9-111.8-71.9zM271.5 39c21.4 5.5 38.8 23.3 43.9 45 1.1 4.6 1.6 11.9 1.6 24.7V127H195v-18.3c0-20.9 1.1-27.2 6.8-38.7 4.6-9.4 14.9-20.2 24.3-25.4 13.4-7.4 30.2-9.5 45.4-5.6zM158.2 183.3c.3 18.5.4 19.5 2.7 22.9 8.5 12.4 26 11 32.2-2.7 1.6-3.4 1.9-6.7 1.9-21.8V164h122v17.7c0 15.1.3 18.4 1.9 21.8 6.2 13.7 23.7 15.1 32.2 2.7 2.3-3.4 2.4-4.4 2.7-22.9l.4-19.3 23.6.2 23.7.3L415.2 317c7.5 83.9 13.7 153.7 13.8 155.2v2.8H256c-95.2 0-173-.3-173.1-.8 0-.4 6.2-70.3 13.8-155.4L110.5 164h47.3l.4 19.3z"/></svg>