<svg version="1.1" id="Laag_1" xmlns="http://www.w3.org/2000/svg" x="0" y="0" viewBox="0 0 100 100" style="enable-background:new 0 0 100 100" xml:space="preserve"><style>.st0{fill:#e30613}.st1{fill:#fff}</style><path class="st0" d="M-507.79-111.99h324.02v324.02h-324.02z"/><path class="st1" d="M-429.92-11.68s-16.06-11.39-1.29-28.49c0 0 9.32-12.69 17.35-13.73 0 0 12.43-5.7 14.76 9.32 0 0 2.33 9.32-4.66 19.42 0 0-12.17 15.28-18.91 15.28 0 .01-4.66.53-7.25-1.8zM-439.24 1.53s22.27-5.7 13.21 23.83c0 0-6.22 19.68-10.1 28.75 0 0-15.8 37.29-18.13 53.35 0 0-2.33 11.14-2.85 13.99 0 0-.78 9.58-11.4 9.58 0 0-14.76 2.33-17.61-12.69 0 0-2.88-11.83-.26-21.24 0 0 3.89-17.87 12.43-38.07 0 0 13.73-39.88 19.42-46.1.01-.01 7.26-10.11 15.29-11.4zM-366.47-57.78s4.66-3.63 6.99-3.63c0 0 4.4.52 8.81 6.47 0 0 11.4 11.14 8.03 19.68L-357.4-2.88s-23.31 51.54-26.68 63.71c0 0-18.13 49.73-22.53 62.67 0 0-1.81 12.95-16.83 3.88 0 0-12.95-4.92-7.77-36.26 0 0 3.11-21.75 15.8-52.32 0 0 17.35-43.77 26.16-60.86-.01.02 13.2-26.66 22.78-35.72zM-325.55-30.85s13.21-19.68 16.32-20.72c0 0 7.51-9.06 18.91 2.33 0 0 11.92 10.36 4.14 25.9 0 0-29.27 68.89-33.15 74.59 0 0-12.43 25.38-18.13 45.06l-9.84 27.97s-3.63 15.8-18.39 4.4c0 0-17.61-10.88-2.07-57.24 0 0 15.54-46.36 20.72-54.65l10.62-24.09 10.87-23.55zM-229.46 27.17s6.73-12.17 11.65-7.77c0 0 18.65 10.88 13.73 23.05 0 0-4.4 22.79-20.72 45.84 0 0-18.65 34.44-55.16 58.53 0 0-26.42 19.17-41.96 26.16 0 0-13.47 4.92-19.94 3.11 0 0-8.89-2.58 3.37-6.47 0 0 4.75-2.36 10.5-7.11 7.9-5.58 18.83-13.8 31-24.25 0 0 13.93-12.67 16.26-15.78 0 0 3.88-3.89-2.07-1.81 0 0-24.34 12.69-36.78-15.02 0 0-7.25-12.43 9.84-44.55 0 0 18.65-36 27.97-46.1 0 0 6.47-11.65 16.83-2.85l9.07 9.84s8.29 4.4 0 17.61l-25.9 40.66s-6.22 12.69-2.33 14.76c0 0 3.11 2.85 16.32-11.65 0 0 13.45-16.84 16.58-20.98 9.57-12.69 21.74-35.22 21.74-35.22z"/><path class="st0" d="M303.78-11.68s-16.06-11.39-1.3-28.49c0 0 9.32-12.69 17.35-13.73 0 0 12.43-5.7 14.76 9.32 0 0 2.33 9.32-4.66 19.42 0 0-12.17 15.28-18.91 15.28.01.01-4.65.53-7.24-1.8zM294.45 1.53s22.27-5.7 13.21 23.83c0 0-6.22 19.68-10.1 28.75 0 0-15.8 37.29-18.13 53.35 0 0-2.33 11.14-2.85 13.99 0 0-.78 9.58-11.4 9.58 0 0-14.76 2.33-17.61-12.69 0 0-2.88-11.83-.26-21.24 0 0 3.89-17.87 12.43-38.07 0 0 13.73-39.88 19.42-46.1.01-.01 7.26-10.11 15.29-11.4zM367.23-57.78s4.66-3.63 6.99-3.63c0 0 4.4.52 8.81 6.47 0 0 11.4 11.14 8.03 19.68L376.29-2.88s-23.31 51.54-26.68 63.71c0 0-18.13 49.73-22.53 62.67 0 0-1.81 12.95-16.83 3.88 0 0-12.95-4.92-7.77-36.26 0 0 3.11-21.75 15.8-52.32 0 0 17.35-43.77 26.16-60.86 0 .02 13.21-26.66 22.79-35.72zM408.15-30.85s13.21-19.68 16.32-20.72c0 0 7.51-9.06 18.91 2.33 0 0 11.92 10.36 4.14 25.9 0 0-29.27 68.89-33.15 74.59 0 0-12.43 25.38-18.13 45.06l-9.84 27.97s-3.63 15.8-18.39 4.4c0 0-17.61-10.88-2.07-57.24 0 0 15.54-46.36 20.72-54.65L397.28-7.3l10.87-23.55zM504.24 27.17s6.73-12.17 11.65-7.77c0 0 18.65 10.88 13.73 23.05 0 0-4.4 22.79-20.72 45.84 0 0-18.65 34.44-55.16 58.53 0 0-26.42 19.17-41.96 26.16 0 0-13.47 4.92-19.94 3.11 0 0-8.89-2.58 3.37-6.47 0 0 4.75-2.36 10.5-7.11 7.9-5.58 18.83-13.8 31-24.25 0 0 13.93-12.67 16.26-15.78 0 0 3.88-3.89-2.07-1.81 0 0-24.34 12.69-36.78-15.02 0 0-7.25-12.43 9.84-44.55 0 0 18.65-36 27.97-46.1 0 0 6.47-11.65 16.83-2.85l9.07 9.84s8.29 4.4 0 17.61l-25.9 40.66s-6.22 12.69-2.33 14.76c0 0 3.11 2.85 16.32-11.65 0 0 13.45-16.84 16.58-20.98 9.56-12.69 21.74-35.22 21.74-35.22z"/><text transform="translate(459.582 406.999)" style="font-family:'NotoSansCJKkr-Bold';font-size:209.7088px">404</text><text transform="translate(592.565 -219.435)" style="font-family:'NotoSansCJKkr-Bold';font-size:12px">Lorem ipsum</text><path class="st0" d="M0 0h100v100H0z"/><path class="st1" d="M24.03 30.96s-4.96-3.52-.4-8.79c0 0 2.88-3.92 5.36-4.24 0 0 3.84-1.76 4.56 2.88 0 0 .72 2.88-1.44 5.99 0 0-3.76 4.72-5.83 4.72-.01 0-1.45.16-2.25-.56zM21.16 35.03s6.87-1.76 4.08 7.35c0 0-1.92 6.07-3.12 8.87 0 0-4.88 11.51-5.6 16.47 0 0-.72 3.44-.88 4.32 0 0-.24 2.96-3.52 2.96 0 0-4.56.72-5.44-3.92 0 0-.89-3.65-.08-6.55 0 0 1.2-5.52 3.84-11.75 0 0 4.24-12.31 5.99-14.23.01 0 2.25-3.12 4.73-3.52zM43.62 16.73s1.44-1.12 2.16-1.12c0 0 1.36.16 2.72 2 0 0 3.52 3.44 2.48 6.07l-4.56 9.99s-7.19 15.91-8.23 19.66c0 0-5.6 15.35-6.95 19.34 0 0-.56 4-5.2 1.2 0 0-4-1.52-2.4-11.19 0 0 .96-6.71 4.88-16.15 0 0 5.36-13.51 8.07-18.78-.01.01 4.07-8.22 7.03-11.02zM56.24 25.04s4.08-6.07 5.04-6.39c0 0 2.32-2.8 5.83.72 0 0 3.68 3.2 1.28 7.99 0 0-9.03 21.26-10.23 23.02 0 0-3.84 7.83-5.59 13.91l-3.04 8.63s-1.12 4.88-5.68 1.36c0 0-5.44-3.36-.64-17.66 0 0 4.8-14.31 6.39-16.87l3.28-7.43 3.36-7.28zM85.9 42.95s2.08-3.76 3.6-2.4c0 0 5.76 3.36 4.24 7.11 0 0-1.36 7.03-6.39 14.15 0 0-5.76 10.63-17.03 18.06 0 0-8.15 5.91-12.95 8.07 0 0-4.16 1.52-6.15.96 0 0-2.74-.8 1.04-2 0 0 1.46-.73 3.24-2.19 2.44-1.72 5.81-4.26 9.57-7.48 0 0 4.3-3.91 5.02-4.87 0 0 1.2-1.2-.64-.56 0 0-7.51 3.92-11.35-4.64 0 0-2.24-3.84 3.04-13.75 0 0 5.75-11.11 8.63-14.23 0 0 2-3.6 5.2-.88l2.8 3.04s2.56 1.36 0 5.44l-7.99 12.55s-1.92 3.92-.72 4.56c0 0 .96.88 5.04-3.6 0 0 4.15-5.2 5.12-6.47 2.92-3.92 6.68-10.87 6.68-10.87z"/></svg>