<svg version="1.1" id="Layer_1" xmlns="http://www.w3.org/2000/svg" x="0" y="0" viewBox="0 0 500 500" style="enable-background:new 0 0 500 500" xml:space="preserve"><style>.st0{fill:#c4c4c4}</style><path class="st0" d="M249.99 497.5C113.53 497.5 2.5 386.47 2.5 250S113.53 2.5 249.99 2.5C386.47 2.5 497.5 113.53 497.5 250S386.47 497.5 249.99 497.5zm0-482.92C120.18 14.58 14.57 120.19 14.57 250s105.61 235.42 235.42 235.42c129.82 0 235.43-105.61 235.43-235.42S379.81 14.58 249.99 14.58z"/><path class="st0" d="M199.26 210.72h22.2v-21.57c0-9.52.24-24.19 7.15-33.28 7.28-9.62 17.28-16.17 34.47-16.17 28.01 0 39.8 4 39.8 4l-5.55 32.9s-9.25-2.68-17.88-2.68c-8.64 0-16.37 3.1-16.37 11.72v25.09h35.41l-2.47 32.13h-32.94v111.61h-41.62V242.85h-22.2v-32.13z"/></svg>