<svg version="1.1" id="Laag_1" xmlns="http://www.w3.org/2000/svg" x="0" y="0" viewBox="0 0 200 200" style="enable-background:new 0 0 200 200" xml:space="preserve"><style>.st0{fill:#e30613}</style><path class="st0" d="M40.58 51.35s-11.28-8.01-.91-20.02c0 0 6.55-8.92 12.19-9.65 0 0 8.74-4 10.37 6.55 0 0 1.64 6.55-3.28 13.65 0 0-8.55 10.74-13.29 10.74.01.01-3.26.37-5.08-1.27zM34.03 60.64s15.65-4 9.28 16.74c0 0-4.37 13.83-7.1 20.2 0 0-11.1 26.21-12.74 37.49 0 0-1.64 7.83-2 9.83 0 0-.55 6.73-8.01 6.73 0 0-10.37 1.64-12.38-8.92 0 0-2.02-8.32-.18-14.92 0 0 2.73-12.56 8.74-26.76 0 0 9.65-28.03 13.65-32.4 0 .01 5.09-7.08 10.74-7.99zM85.17 18.96s3.28-2.55 4.91-2.55c0 0 3.09.36 6.19 4.55 0 0 8.01 7.83 5.64 13.83L91.54 57.54s-16.38 36.22-18.75 44.77c0 0-12.74 34.95-15.83 44.05 0 0-1.27 9.1-11.83 2.73 0 0-9.1-3.46-5.46-25.48 0 0 2.18-15.29 11.1-36.77 0 0 12.19-30.76 18.38-42.77 0 0 9.29-18.74 16.02-25.11zM113.93 37.89s9.28-13.83 11.47-14.56c0 0 5.28-6.37 13.29 1.64 0 0 8.37 7.28 2.91 18.2 0 0-20.57 48.41-23.3 52.42 0 0-8.74 17.84-12.74 31.67l-6.92 19.66s-2.55 11.1-12.92 3.09c0 0-12.38-7.64-1.46-40.22 0 0 10.92-32.58 14.56-38.4l7.46-16.93 7.65-16.57zM181.45 78.65s4.73-8.55 8.19-5.46c0 0 13.1 7.64 9.65 16.2 0 0-3.1 16.02-14.56 32.22 0 0-13.1 24.21-38.77 41.13 0 0-18.56 13.47-29.49 18.38 0 0-9.46 3.46-14.01 2.18 0 0-6.25-1.82 2.37-4.55 0 0 3.33-1.66 7.38-5 5.55-3.92 13.23-9.7 21.79-17.04 0 0 9.79-8.9 11.43-11.09 0 0 2.73-2.73-1.46-1.27 0 0-17.11 8.92-25.85-10.56 0 0-5.1-8.74 6.92-31.31 0 0 13.1-25.3 19.66-32.4 0 0 4.55-8.19 11.83-2L162.9 75s5.82 3.09 0 12.38l-18.2 28.58s-4.37 8.92-1.64 10.37c0 0 2.18 2 11.47-8.19 0 0 9.45-11.84 11.65-14.74 6.72-8.91 15.27-24.75 15.27-24.75z"/></svg>