<svg version="1.1" id="Layer_1" xmlns="http://www.w3.org/2000/svg" x="0" y="0" viewBox="0 0 500 500" style="enable-background:new 0 0 500 500" xml:space="preserve"><style>.st0{fill:#c4c4c4}.st1{fill:none;stroke:#c4c4c4;stroke-width:12.0732;stroke-miterlimit:10}</style><path class="st0" d="M250 497.5C113.53 497.5 2.5 386.47 2.5 250S113.53 2.5 250 2.5 497.5 113.53 497.5 250 386.47 497.5 250 497.5zm0-482.93C120.18 14.57 14.57 120.18 14.57 250S120.18 485.43 250 485.43 485.43 379.82 485.43 250 379.82 14.57 250 14.57z"/><path class="st1" d="M317.75 358.66h-135.5c-22.59 0-40.9-18.31-40.9-40.9V182.25c0-22.59 18.31-40.9 40.9-40.9h135.51c22.59 0 40.9 18.31 40.9 40.9v135.51c0 22.59-18.31 40.9-40.91 40.9z"/><circle class="st1" cx="250" cy="250" r="46.65"/><path class="st0" d="M330.54 184.82c0 8.51-6.9 15.41-15.41 15.41s-15.41-6.9-15.41-15.41 6.9-15.41 15.41-15.41c8.52.01 15.41 6.91 15.41 15.41z"/></svg>