<svg version="1.0" xmlns="http://www.w3.org/2000/svg" width="682.667" height="682.667" viewBox="0 0 512 512"><path d="M14.2 28.6C-1.9 36.6-4.7 58 8.8 70.2 16.3 77-3 76.5 256 76.5s239.7.5 247.2-6.3c13.5-12.2 10.7-33.6-5.4-41.6l-5.2-2.6H19.4l-5.2 2.6zM16.5 231.6c-22.2 7.9-21.9 41.3.4 48.9 3.9 1.3 31.2 1.5 239.1 1.5s235.2-.2 239.1-1.5c22.6-7.7 22.6-41.3 0-49-3.9-1.3-31.2-1.5-239.5-1.4-201.4 0-235.7.3-239.1 1.5zM221.5 437.4c-9.4 4.4-14.4 12.6-14.5 23.4 0 10.4 4.3 17.9 13.2 22.8l5.3 2.9h268l5.3-2.9c8.9-4.9 13.2-12.4 13.2-22.8-.1-10.8-5.1-19-14.5-23.4l-5-2.4h-266l-5 2.4z"/></svg>