<?xml version="1.0" encoding="utf-8"?>
<!-- Generator: Adobe Illustrator 25.2.3, SVG Export Plug-In . SVG Version: 6.00 Build 0)  -->
<svg version="1.1" id="Layer_1" xmlns="http://www.w3.org/2000/svg" xmlns:xlink="http://www.w3.org/1999/xlink" x="0px" y="0px"
	 viewBox="0 0 100 100" style="enable-background:new 0 0 100 100;" xml:space="preserve">
<style type="text/css">
	.st0{fill:#FFFFFF;}
	.st1{fill:#FCC24F;}
</style>
<g>
	<g>
		<path class="st0" d="M36,70.3l-0.9,3.5c-0.3,1.5,0.2,2,1.8,2h11l0.4-2H37.9l0.5-1.5h10.4l1.1-5.4H36.7l-0.4,2h10.2l-0.2,1.5H36z"
			/>
		<polygon class="st0" points="32.3,81.3 48.1,81.3 48.5,79.2 42.1,79.2 42.6,76.9 39.6,76.9 39.1,79.2 32.8,79.2 		"/>
	</g>
	<g>
		<path class="st0" d="M54.1,72.4c0.7,1.3,2.4,2.2,3.5,2.2l0.4-1.9c-1.1-0.3-1.8-1.6-1.6-3.9h2.2l0.4-2h-7.1l-0.4,2h2.2
			c-0.8,2.3-2.3,3.6-3.5,3.9l-0.4,1.9C50.8,74.6,52.9,73.7,54.1,72.4z"/>
		<polygon class="st0" points="63.6,66.6 61.5,76.6 64,76.6 66.1,66.6 		"/>
		<path class="st0" d="M63.4,79.2H54l0.7-3.4h-2.9L51,79.3c-0.3,1.5,0.3,2.1,1.9,2.1h10L63.4,79.2z"/>
		<polygon class="st0" points="59.4,71.5 57.9,71.5 58.4,69.4 59.9,69.4 60.5,66.6 63,66.6 60.9,76.6 58.3,76.6 		"/>
	</g>
	<g>
		<polygon class="st0" points="95.6,66.6 94.9,69.8 93.8,69.8 94.5,66.6 92,66.6 88.9,81.4 91.3,81.4 93.4,71.8 94.5,71.8 
			92.4,81.4 94.9,81.4 98.1,66.6 		"/>
		<path class="st0" d="M87.4,69.8h-2.2l0.7-3h-2.3l-1.7,8c-0.2,0.9,0.1,1.4,1.1,1.5h5.2v0h0.2l2.1-9.5h-2.3L87.4,69.8z M84.8,71.8
			H87l-0.6,2.7h-2.2L84.8,71.8z"/>
	</g>
	<g>
		<polygon class="st0" points="82.1,66.6 79.6,66.6 79,69.3 77.9,69.3 78.5,66.6 76,66.6 74.3,74.1 76.8,74.1 77.4,71.3 78.6,71.3 
			77.7,75.4 67.4,75.4 67,77.4 77.3,77.4 76.4,81.3 78.9,81.4 		"/>
		<path class="st0" d="M73.1,72.4h-3.8l0.2-1.1h3.8l0.4-1.7h-3.8l0.2-1h3.8l0.4-1.7h-6.6l-1.2,5.9c-0.2,0.7,0,1.2,0.9,1.3h5.4
			L73.1,72.4z"/>
	</g>
</g>
<path class="st0" d="M0,30.5l9.6,7.8c0,0,11.8-4.6,22.5,7.5c0,0,17.1-22.1,48.8-13.2l6.8-13.9c0,0-37.3-3.3-56.2,23.1
	C31.5,41.9,17.5,27,0,30.5z"/>
<g>
	<path class="st1" d="M34.8,48h3.6l-2.3,9.7c0,0-0.2,0.8,0.3,0.9c0,0,0.3,0.1,0.7,0.1h5l-0.8,3.5h-5.7c0,0-1.5,0.1-2.4-0.8
		c0,0-0.7-0.7-0.8-2c0,0,0-0.8,0.2-1.6L34.8,48z"/>
	<path class="st1" d="M57.9,52.6c-0.3-3-2.7-4.2-2.7-4.2c-2.6-1.4-5.8-0.2-5.8-0.2c-2,0.7-3.6,2.2-3.6,2.2C42,54.2,43,58,43,58
		c0.8,3.5,3.9,4.1,3.9,4.1c4.8,1.2,8.2-2.4,8.2-2.4C58.5,56.3,57.9,52.6,57.9,52.6z M53.6,56.3C52.8,58,51,58.7,51,58.7
		c-3.4,1-4.2-1.1-4.2-1.1c-1.2-2.7,1.2-5.1,1.2-5.1c2.5-2.3,4.9-1,4.9-1c1,0.6,1.1,1.2,1.1,1.2C54.8,54.4,53.6,56.3,53.6,56.3z"/>
	<path class="st1" d="M65.7,56.6l0.7-3.2h7.5l-0.5,2.1c0,0-0.4,2.8-3.8,5.2c0,0-3.2,2.4-6.9,1.4c0,0-3.1-0.7-3.8-4
		c0,0-0.5-1.9,0.5-4.4c0,0,0.9-2.5,3.5-4.4c0,0,1.6-1.2,3.4-1.5c0,0,2-0.4,4,0.2c0,0,2.1,0.6,3.1,2.1l-2.8,2.5c0,0-0.6-1.3-2.4-1.6
		c0,0-1.4-0.3-3,0.5c0,0-1.4,0.8-2.1,2.2c0,0-0.9,1.5-0.4,3.2c0,0,0.4,1.7,2.4,1.8c0,0,1.1,0.2,2.7-0.7c0,0,1.1-0.7,1.5-1.5
		L65.7,56.6z"/>
	<path class="st1" d="M86.3,51.3h-3.5c0,0-2.3-0.2-3.6,2.2h6.6L85,56.6h-6.6c0,0,0,1.8,1.8,2.1c0,0,0.6,0.1,1,0.1h3.3l-0.8,3.3h-3.4
		c0,0-3.1,0.1-4.6-2.2c0,0-1-1.4-0.8-3.9c0,0,0.2-2.3,1.6-4.3c0,0,1.3-2.1,4-3.2c0,0,1.1-0.4,2-0.5c0,0,0.9-0.1,1.1-0.1H87
		L86.3,51.3z"/>
	<path class="st1" d="M85.2,62.2h3.6l2.1-8.8l1.8,7.2c0,0,0.3,1,0.9,1.6c0,0,1.3,0.9,2.7-0.2c0,0,0.6-0.5,0.9-1.7l1.7-7.4L100,48
		h-3.5l-1.8,7.8l-1.5-6c0,0-0.4-2-2.1-2c0,0-1.4-0.2-2.4,1c0,0-0.5,0.6-0.7,1.5l-1.7,7.4L85.2,62.2z"/>
</g>
</svg>
