<?xml version="1.0" encoding="utf-8"?>
<!-- Generator: Adobe Illustrator 25.2.3, SVG Export Plug-In . SVG Version: 6.00 Build 0)  -->
<svg version="1.1" id="Layer_1" xmlns="http://www.w3.org/2000/svg" xmlns:xlink="http://www.w3.org/1999/xlink" x="0px" y="0px"
	 viewBox="0 0 100 100" 
	 fill="#fff"
	 style="enable-background:new 0 0 100 100;" xml:space="preserve">
<g>
	<path d="M55.9,41.1c-2.2,0-3.9,1.8-3.9,3.9c0,2.2,1.8,3.9,3.9,3.9c2.2,0,3.9-1.8,3.9-3.9C59.9,42.8,58.1,41.1,55.9,41.1z"/>
	<path d="M79.5,41.1c-2.2,0-3.9,1.8-3.9,3.9c0,2.2,1.8,3.9,3.9,3.9c2.2,0,3.9-1.8,3.9-3.9C83.4,42.8,81.7,41.1,79.5,41.1z"/>
	<path d="M20.9,41.1c-2.2,0-3.9,1.8-3.9,3.9c0,2.2,1.8,3.9,3.9,3.9c2.2,0,3.9-1.8,3.9-3.9C24.8,42.8,23,41.1,20.9,41.1z"/>
	<path d="M84.2,7.9H15.8C7.1,7.9,0,15,0,23.8v37.6c0,8.7,7.1,15.8,15.8,15.8h23.6l8,13.1c0,0,0.1,0.2,0.3,0.4
		c0.5,0.8,1.3,1.4,2.3,1.4c1,0,1.9-0.5,2.3-1.3c0.2-0.2,0.3-0.4,0.3-0.4l8-13.1h23.6c8.7,0,15.8-7.1,15.8-15.8V23.8
		C100,15,92.9,7.9,84.2,7.9z M22.2,54.3c-3.7,0-5.1-2.6-5.1-2.6v2h-6.2V28.2H17v9.7c2.5-2.4,5.2-2.4,5.2-2.4c8.3,0,8.6,9.3,8.6,9.3
		C30.8,54,22.2,54.3,22.2,54.3z M41.5,37.2v16.5h-5.9V38.6c0-5.2-2.8-5.1-2.8-5.1v-5.9C41.8,27.6,41.5,37.2,41.5,37.2z M66.3,45
		c0,9.3-10.3,9.3-10.3,9.3c-10.4,0-10.1-9.3-10.1-9.3c0-9.4,10.1-9.4,10.1-9.4C66.6,35.6,66.3,45,66.3,45z M89.1,53.5
		c0,9.7-8.9,9.6-8.9,9.6h-2.4v-5.4h1.5c4.3,0,3.9-4.5,3.9-4.5v-1.4c-1.9,2.5-5.4,2.3-5.4,2.3c-8.5,0-8.4-9.1-8.4-9.1
		c0-9.7,8.7-9.4,8.7-9.4c3.4,0,5.1,2.3,5.1,2.3v-1.7h6V53.5z"/>
</g>
</svg>
