<svg version="1.0" xmlns="http://www.w3.org/2000/svg" fill="#fff" width="682.667" height="682.667" viewBox="0 0 512 512"><path d="M178 1.5C133.6 7.1 91.6 27.8 59.7 59.7-.7 120-16.9 211.5 19.1 287.8c29.7 63.1 89.1 106.7 157.2 115.7 50.6 6.6 102.3-6.4 143.7-36.1 4.9-3.5 9.3-6.4 9.7-6.4.4 0 33.9 33.1 74.3 73.4 77.5 77.5 77.6 77.5 86.5 77.6 4.4 0 13.1-3.6 15.7-6.6 2.9-3.3 5.8-10.7 5.8-14.9 0-8.9-.1-9-77.6-86.5-40.3-40.4-73.4-73.8-73.4-74.2 0-.4 2.9-4.8 6.5-9.9 24.8-35.1 37.4-74.2 37.5-116.6 0-54.8-21-105.5-59.7-144C314.7 28.9 277.1 9.7 234 2.5c-13.6-2.3-41.8-2.8-56-1zm48 43c45.6 7.4 84.5 32 109.2 69.2 18.4 27.7 26.9 55.4 27 88.3 0 15.9-1.1 25.5-4.7 40-14.1 56.3-59.2 101.4-115.5 115.5-14.5 3.6-24.1 4.7-40 4.7-32.9-.1-60.6-8.6-88.3-27-44.1-29.3-70.7-79-70.7-132.5 0-26.8 5.5-49.4 18-73.6 20.2-39.1 56.2-68.2 99.5-80.7 18.3-5.2 46.6-6.9 65.5-3.9z"/></svg>